# xmcd
#
# Track frame offsets: 
#        150
#        12350
#        22434
#        34507
#        45332
#        56574
#        68206
#        80733
#        92516
#        98157
#        108813
#        122483
#        135150
#        147064
#        155681
#        166994
#        181099
#        192837
#        201280
#        211300
#        224493
#        235942
#        250545
#        261299
#        270297
#        281638
#        291860
#        301901
#        311554
#        323301
#
# Disc length: 4444 seconds
#
# Revision: 0
# Processed by: cddbd v1.5.2PL0 Copyright (c) Steve Scherf et al.
# Submitted via: ExactAudioCopyFreeDBPlugin 1.0
#
DISCID=9c115a1e
DTITLE=Various Artist - Music City Vocal Groups: Rock'n'Roll It, Mamb
DTITLE=o, Stroll It
DYEAR=2014
DGENRE=Doo-wop
TTITLE0=The Holidays - Wouldn't Believe
TTITLE1=The Klixs - It's All Over
TTITLE2=The Midnights - She Left Me
TTITLE3=The 5 Campbells - Hey Baby
TTITLE4=The Four Deuces  - The Nest Is Warm (But The Goose Is Gone)
TTITLE5=The Four Deuces - Down It Went aka It Went Down Easy
TTITLE6=The Midnights - Annie Pulled A Hum-Bug
TTITLE7=Unknown Group - Drive-In Movie (a cappella)
TTITLE8=The Gaylarks - Teenage Mambo (a cappella)
TTITLE9=The Klixs - He-A-Woe
TTITLE10=The Four Deuces - What'Cha Gonna Do?
TTITLE11=The Holidays - Hoochi Coochi Man
TTITLE12=The Girls - Ooo Wee
TTITLE13=The 5 Rovers - Change Your Mind
TTITLE14=The Gaylarks - Somewhere In This World
TTITLE15=The Four Deuces - Italian Swiss Colony Wine spot - W-P-L-J (v
TTITLE15=ersion 2)
TTITLE16=The Rovers -  Ichi-Bon Tami Dachi
TTITLE17=The Midnights - Lindy
TTITLE18=The Holidays - Church Bells Will Ring
TTITLE19=The Four Deuces - The Nest Is Warm (But The Goose Is Gone)
TTITLE20=The Four Deuces - Down It Went aka It Went Down Easy
TTITLE21=The Dialtones - Goofin' Off
TTITLE22=The Mandarins - Roll On Little Mama
TTITLE23=The Klixs - Oobie Doobie Baby
TTITLE24=The Spinners - If You Really Want To Know
TTITLE25=The Gaylarks - Look Into The Darkness
TTITLE26=The Marcels - Indian Jane (a cappella)
TTITLE27=The Emeralds - Yobosaya (a cappella)
TTITLE28=The Gayteens - Ding Dong
TTITLE29=The Klixs - Bye Bye Louie
EXTD=
EXTT0=
EXTT1=
EXTT2=
EXTT3=
EXTT4=
EXTT5=
EXTT6=
EXTT7=
EXTT8=
EXTT9=
EXTT10=
EXTT11=
EXTT12=
EXTT13=
EXTT14=
EXTT15=
EXTT16=
EXTT17=
EXTT18=
EXTT19=
EXTT20=
EXTT21=
EXTT22=
EXTT23=
EXTT24=
EXTT25=
EXTT26=
EXTT27=
EXTT28=
EXTT29=
PLAYORDER=
